<?xml version="1.0" encoding="UTF-8" standalone="no"?>
<svg
   xmlns:dc="http://purl.org/dc/elements/1.1/"
   xmlns:cc="http://creativecommons.org/ns#"
   xmlns:rdf="http://www.w3.org/1999/02/22-rdf-syntax-ns#"
   xmlns:svg="http://www.w3.org/2000/svg"
   xmlns="http://www.w3.org/2000/svg"
   xmlns:sodipodi="http://sodipodi.sourceforge.net/DTD/sodipodi-0.dtd"
   xmlns:inkscape="http://www.inkscape.org/namespaces/inkscape"
   version="1.1"
   id="Capa_1"
   x="0px"
   y="0px"
   viewBox="0 0 32 32"
   xml:space="preserve"
   sodipodi:docname="arrow.svg"
   inkscape:version="1.0.1 (3bc2e813f5, 2020-09-07)"
   width="32"
   height="32"><metadata
   id="metadata41"><rdf:RDF><cc:Work
       rdf:about=""><dc:format>image/svg+xml</dc:format><dc:type
         rdf:resource="http://purl.org/dc/dcmitype/StillImage" /><dc:title></dc:title></cc:Work></rdf:RDF></metadata><defs
   id="defs39" /><sodipodi:namedview
   pagecolor="#ffffff"
   bordercolor="#666666"
   borderopacity="1"
   objecttolerance="10"
   gridtolerance="10"
   guidetolerance="10"
   inkscape:pageopacity="0"
   inkscape:pageshadow="2"
   inkscape:window-width="1366"
   inkscape:window-height="712"
   id="namedview37"
   showgrid="false"
   inkscape:zoom="14.870496"
   inkscape:cx="15.843895"
   inkscape:cy="13.274378"
   inkscape:window-x="0"
   inkscape:window-y="27"
   inkscape:window-maximized="1"
   inkscape:current-layer="Capa_1"
   inkscape:document-rotation="0" />
<path
   style="fill:#1894f2;fill-opacity:1;stroke-width:0.0651889"
   d="M 15.99863,0 C 7.162059,7.8226858e-4 -7.8318732e-4,7.1648631 -9.1874594e-7,16.001369 7.8134983e-4,24.83794 7.1648622,32.000717 16.001368,32 24.837352,31.999218 31.999999,24.835984 31.999999,16 31.990025,7.1670143 24.831551,0.00919166 15.99863,0 Z"
   id="path2" />
<path
   style="fill:#fafafa;stroke-width:0.0651889"
   d="m 13.225553,25.04648 c -0.384029,7.17e-4 -0.695893,-0.310105 -0.69661,-0.694133 -3.26e-4,-0.185137 0.07321,-0.362777 0.204302,-0.493547 l 7.854694,-7.85189 -7.854694,-7.8518253 c -0.266753,-0.276206 -0.259126,-0.7164276 0.01708,-0.9832464 0.269492,-0.2602347 0.696675,-0.2602347 0.966102,0 l 8.344198,8.3441977 c 0.271447,0.271513 0.271447,0.711669 0,0.983247 l -8.344198,8.344198 c -0.130248,0.129987 -0.30678,0.202999 -0.490874,0.202999 z"
   id="path4" />
<g
   id="g6">
</g>
<g
   id="g8">
</g>
<g
   id="g10">
</g>
<g
   id="g12">
</g>
<g
   id="g14">
</g>
<g
   id="g16">
</g>
<g
   id="g18">
</g>
<g
   id="g20">
</g>
<g
   id="g22">
</g>
<g
   id="g24">
</g>
<g
   id="g26">
</g>
<g
   id="g28">
</g>
<g
   id="g30">
</g>
<g
   id="g32">
</g>
<g
   id="g34">
</g>
</svg>
